{
  "accessors": [
    {
      "bufferView": 2,
      "componentType": 5126,
      "count": 4392,
      "max": [
        13.579580307006836,
        1.0195000171661377,
        -15.10295295715332
      ],
      "min": [
        9.189062118530273,
        -8.001644134521484,
        -20.1229190826416
      ],
      "type": "VEC3"
    },
    {
      "bufferView": 2,
      "byteOffset": 52704,
      "componentType": 5126,
      "count": 4392,
      "max": [
        0.9999507665634155,
        0.9990653991699219,
        0.9998859167098999
      ],
      "min": [
        -0.9999399185180664,
        -0.9387964606285095,
        -0.9986865520477295
      ],
      "type": "VEC3"
    },
    {
      "bufferView": 1,
      "componentType": 5126,
      "count": 4392,
      "max": [
        0.9979349970817566,
        0.9999079704284668
      ],
      "min": [
        2.300000051036477e-05,
        0.0001230000052601099
      ],
      "type": "VEC2"
    },
    {
      "bufferView": 0,
      "componentType": 5125,
      "count": 23706,
      "type": "SCALAR"
    }
  ],
  "asset": {
    "extras": {
      "author": "Lassi Kaukonen (https://sketchfab.com/thesidekick)",
      "license": "CC-BY-4.0 (http://creativecommons.org/licenses/by/4.0/)",
      "source": "https://sketchfab.com/3d-models/male-hand-26b30d91fa114254a8defeca49042434",
      "title": "Male Hand"
    },
    "generator": "Sketchfab-12.68.0",
    "version": "2.0"
  },
  "bufferViews": [
    {
      "buffer": 0,
      "byteLength": 94824,
      "name": "floatBufferViews",
      "target": 34963
    },
    {
      "buffer": 0,
      "byteLength": 35136,
      "byteOffset": 94824,
      "byteStride": 8,
      "name": "floatBufferViews",
      "target": 34962
    },
    {
      "buffer": 0,
      "byteLength": 105408,
      "byteOffset": 129960,
      "byteStride": 12,
      "name": "floatBufferViews",
      "target": 34962
    }
  ],
  "buffers": [
    {
      "byteLength": 235368,
      "uri": "scene.bin"
    }
  ],
  "images": [
    {
      "uri": "textures/Male_hand_40plus_baseColor.jpeg"
    }
  ],
  "materials": [
    {
      "doubleSided": true,
      "emissiveFactor": [
        0.32007575757575757,
        0.32007575757575757,
        0.32007575757575757
      ],
      "emissiveTexture": {
        "index": 0
      },
      "name": "Male_hand_40plus",
      "pbrMetallicRoughness": {
        "baseColorFactor": [
          0.759280303030303,
          0.759280303030303,
          0.759280303030303,
          1.0
        ],
        "baseColorTexture": {
          "index": 0
        },
        "metallicFactor": 0.0
      }
    }
  ],
  "meshes": [
    {
      "name": "Male_hand_40plus_Male_hand_40plus_0",
      "primitives": [
        {
          "attributes": {
            "NORMAL": 1,
            "POSITION": 0,
            "TEXCOORD_0": 2
          },
          "indices": 3,
          "material": 0,
          "mode": 4
        }
      ]
    }
  ],
  "nodes": [
    {
      "children": [
        1
      ],
      "matrix": [
        1.0,
        0.0,
        0.0,
        0.0,
        0.0,
        2.220446049250313e-16,
        -1.0,
        0.0,
        0.0,
        1.0,
        2.220446049250313e-16,
        0.0,
        0.0,
        0.0,
        0.0,
        1.0
      ],
      "name": "Sketchfab_model"
    },
    {
      "children": [
        2
      ],
      "matrix": [
        1.0,
        0.0,
        0.0,
        0.0,
        0.0,
        0.0,
        1.0,
        0.0,
        0.0,
        -1.0,
        0.0,
        0.0,
        0.0,
        0.0,
        0.0,
        1.0
      ],
      "name": "Male_hand_40plus.fbx"
    },
    {
      "children": [
        3
      ],
      "name": "RootNode"
    },
    {
      "children": [
        4
      ],
      "matrix": [
        -57.075630309643735,
        -7.526196478681449,
        -81.76630596597332,
        0.0,
        -27.34506913341413,
        95.63716768668124,
        10.284834713283802,
        0.0,
        77.42492818690661,
        28.22918928686231,
        -56.64356421923726,
        0.0,
        1996.913330078125,
        1403.3663330078125,
        -38.929176330566406,
        1.0
      ],
      "name": "Male_hand_40plus"
    },
    {
      "mesh": 0,
      "name": "Male_hand_40plus_Male_hand_40plus_0"
    }
  ],
  "samplers": [
    {
      "magFilter": 9729,
      "minFilter": 9987,
      "wrapS": 10497,
      "wrapT": 10497
    }
  ],
  "scene": 0,
  "scenes": [
    {
      "name": "Sketchfab_Scene",
      "nodes": [
        0
      ]
    }
  ],
  "textures": [
    {
      "sampler": 0,
      "source": 0
    }
  ]
}
